# xmcd
#
# Track frame offsets: 
#        150
#        29995
#        53837
#        82112
#        100724
#        119710
#        136356
#        154088
#
# Disc length: 2361 seconds
#
# Revision: 0
# Processed by: cddbd v1.5.2PL0 Copyright (c) Steve Scherf et al.
# Submitted via: ExactAudioCopy v1.0b1
#
DISCID=70093708
DTITLE=Peaches and Herb - Worth The Wait
DYEAR=1980
DGENRE=Soul
TTITLE0=Fun Time
TTITLE1=One Child Of Love
TTITLE2=All-Night Celebration
TTITLE3=Lovey Dovey (Girl and Guy)
TTITLE4=Surrender
TTITLE5=Hearsay
TTITLE6=Discover You
TTITLE7=The Love Stealers
EXTD=
EXTT0=
EXTT1=
EXTT2=
EXTT3=
EXTT4=
EXTT5=
EXTT6=
EXTT7=
PLAYORDER=
